<svg width="276" height="108" viewBox="0 0 276 108" fill="none" xmlns="http://www.w3.org/2000/svg">
<rect width="276" height="108" rx="54" fill="#EAF2DC"/>
<path d="M54 92C74.9868 92 92 74.9868 92 54C92 33.0132 74.9868 16 54 16C33.0132 16 16 33.0132 16 54C16 74.9868 33.0132 92 54 92Z" fill="#16D202"/>
<path fill-rule="evenodd" clip-rule="evenodd" d="M53.9992 27.8C54.8276 27.8 55.4992 28.4716 55.4992 29.3V30.5667C55.4992 31.4361 55.4992 31.8707 55.6321 32.2168C55.8352 32.746 56.2533 33.1641 56.7825 33.3672C57.1285 33.5 57.5632 33.5 58.4326 33.5V33.5C64.1579 33.5 68.7992 38.1414 68.7992 43.8667C68.7992 44.6951 68.1276 45.3667 67.2992 45.3667C66.4708 45.3667 65.7992 44.6951 65.7992 43.8667C65.7992 39.7982 62.501 36.5 58.4326 36.5H50.1992C45.7809 36.5 42.1992 40.0818 42.1992 44.5C42.1992 48.9183 45.7809 52.5 50.1992 52.5H57.7992C63.8743 52.5 68.7992 57.4249 68.7992 63.5C68.7992 69.5752 63.8743 74.5 57.7992 74.5V74.5C57.5206 74.5 57.3813 74.5 57.2641 74.5139C56.3458 74.6226 55.6218 75.3467 55.5131 76.265C55.4992 76.3821 55.4992 76.5214 55.4992 76.8001V78.7001C55.4992 79.5285 54.8276 80.2001 53.9992 80.2001C53.1708 80.2001 52.4992 79.5285 52.4992 78.7001V77.4334C52.4992 76.564 52.4992 76.1294 52.3664 75.7833C52.1633 75.2541 51.7451 74.836 51.216 74.6329C50.8699 74.5 50.4352 74.5 49.5659 74.5V74.5C43.8405 74.5 39.1992 69.8587 39.1992 64.1334C39.1992 63.305 39.8708 62.6334 40.6992 62.6334C41.5276 62.6334 42.1992 63.305 42.1992 64.1334C42.1992 68.2019 45.4974 71.5 49.5659 71.5H57.7992C62.2175 71.5 65.7992 67.9183 65.7992 63.5C65.7992 59.0818 62.2175 55.5 57.7992 55.5H50.1992C44.1241 55.5 39.1992 50.5752 39.1992 44.5C39.1992 38.4249 44.1241 33.5 50.1992 33.5V33.5C50.4779 33.5 50.6172 33.5 50.7343 33.4862C51.6526 33.3775 52.3767 32.6534 52.4854 31.7351C52.4992 31.618 52.4992 31.4787 52.4992 31.2V29.3C52.4992 28.4716 53.1708 27.8 53.9992 27.8Z" fill="#F7F7F7"/>
<path d="M138 92C158.987 92 176 74.9868 176 54C176 33.0132 158.987 16 138 16C117.013 16 100 33.0132 100 54C100 74.9868 117.013 92 138 92Z" fill="#16D202"/>
<path fill-rule="evenodd" clip-rule="evenodd" d="M123.514 49.8C122.631 49.8 122.19 49.8 121.784 49.9921C121.462 50.1446 121.107 50.4663 120.924 50.7722C120.693 51.1575 120.656 51.5281 120.584 52.2693C120.528 52.8386 120.499 53.416 120.499 54C120.499 54.584 120.528 55.1614 120.584 55.7307C120.656 56.4719 120.693 56.8425 120.924 57.2278C121.107 57.5337 121.462 57.8554 121.784 58.0079C122.19 58.2 122.631 58.2 123.514 58.2H134.199C135.028 58.2 135.699 58.8716 135.699 59.7C135.699 60.5284 135.028 61.2 134.199 61.2H124.523C123.725 61.2 123.325 61.2 123.059 61.3986C122.843 61.5599 122.68 61.8565 122.66 62.1254C122.635 62.4565 122.831 62.764 123.222 63.3791C126.327 68.261 131.785 71.5 137.999 71.5C142.482 71.5 146.568 69.8163 149.666 67.0443C150.283 66.4918 151.231 66.5443 151.784 67.1616C152.336 67.7789 152.284 68.7272 151.666 69.2797C148.04 72.5249 143.249 74.5 137.999 74.5C129.997 74.5 123.066 69.9154 119.69 63.2297C119.276 62.41 119.069 62.0002 118.829 61.7672C118.597 61.5406 118.391 61.414 118.084 61.3085C117.768 61.2 117.373 61.2 116.582 61.2H115.199C114.371 61.2 113.699 60.5284 113.699 59.7C113.699 58.8716 114.371 58.2 115.199 58.2H115.962C116.639 58.2 116.977 58.2 117.202 58.0757C117.412 57.9601 117.55 57.8056 117.642 57.5847C117.741 57.347 117.702 56.9839 117.622 56.2575C117.541 55.5162 117.499 54.763 117.499 54C117.499 53.237 117.541 52.4838 117.622 51.7425C117.702 51.0161 117.741 50.653 117.642 50.4153C117.55 50.1944 117.412 50.0399 117.202 49.9243C116.977 49.8 116.639 49.8 115.962 49.8H115.199C114.371 49.8 113.699 49.1284 113.699 48.3C113.699 47.4716 114.371 46.8 115.199 46.8H116.582C117.373 46.8 117.768 46.8 118.084 46.6915C118.391 46.586 118.597 46.4594 118.829 46.2328C119.069 45.9998 119.276 45.59 119.69 44.7703C123.066 38.0846 129.997 33.5 137.999 33.5C143.249 33.5 148.04 35.4751 151.666 38.7203C152.284 39.2728 152.336 40.2211 151.784 40.8384C151.231 41.4557 150.283 41.5082 149.666 40.9557C146.568 38.1837 142.482 36.5 137.999 36.5C131.785 36.5 126.327 39.739 123.222 44.6209C122.831 45.236 122.635 45.5435 122.66 45.8746C122.68 46.1435 122.843 46.4401 123.059 46.6014C123.325 46.8 123.725 46.8 124.523 46.8H134.199C135.028 46.8 135.699 47.4716 135.699 48.3C135.699 49.1284 135.028 49.8 134.199 49.8H123.514Z" fill="#F7F7F7"/>
<path d="M222 92C242.987 92 260 74.9868 260 54C260 33.0132 242.987 16 222 16C201.013 16 184 33.0132 184 54C184 74.9868 201.013 92 222 92Z" fill="#16D202"/>
<path fill-rule="evenodd" clip-rule="evenodd" d="M215.22 41.9211C215.222 39.3771 215.99 37.5954 217.128 36.3741C218.278 35.1396 219.884 34.3947 221.691 34.0803C225.365 33.4412 229.545 34.6309 231.611 36.5753C231.996 36.9381 232.606 36.9226 232.972 36.5407C233.338 36.1588 233.323 35.5551 232.937 35.1923C230.357 32.7647 225.53 31.4759 221.358 32.2014C219.243 32.5693 217.216 33.4674 215.713 35.0804C214.199 36.7056 213.295 38.9738 213.294 41.9266L213.294 41.9391C213.333 44.9476 214.441 46.9783 215.443 48.8154L215.469 48.8617C216.339 50.4564 217.118 51.9048 217.312 53.8684H210.963C210.431 53.8684 210 54.2954 210 54.8222C210 55.3489 210.431 55.776 210.963 55.776H217.335C217.122 60.1836 215.476 64.2101 213.799 67.2247C212.903 68.834 212.008 70.1389 211.338 71.0394C211.003 71.4892 210.725 71.8371 210.533 72.0705C210.437 72.1871 210.362 72.2752 210.313 72.3328C210.288 72.3617 210.269 72.3829 210.257 72.3964L210.245 72.4108L210.242 72.4134C210.242 72.4134 210.242 72.4134 210.242 72.4134C209.991 72.6943 209.929 73.0952 210.085 73.4375C210.24 73.7798 210.584 74 210.963 74H233.037C233.569 74 234 73.573 234 73.0462C234 72.5195 233.569 72.0924 233.037 72.0924H212.946C213.648 71.1424 214.567 69.7959 215.485 68.1456C217.251 64.9721 219.049 60.619 219.263 55.776H229.358C229.89 55.776 230.321 55.3489 230.321 54.8222C230.321 54.2954 229.89 53.8684 229.358 53.8684H219.245C219.042 51.3984 218.072 49.6218 217.178 47.9836L217.163 47.9547C216.158 46.114 215.253 44.4407 215.22 41.9211Z" fill="#F7F7F7"/>
<path d="M210.242 72.4134L210.245 72.4108L210.257 72.3964C210.269 72.3829 210.288 72.3617 210.313 72.3328C210.362 72.2752 210.437 72.1871 210.533 72.0705C210.725 71.8371 211.003 71.4892 211.338 71.0394C212.008 70.1389 212.903 68.834 213.799 67.2247C215.476 64.2101 217.122 60.1836 217.335 55.776H210.963C210.431 55.776 210 55.3489 210 54.8222C210 54.2954 210.431 53.8684 210.963 53.8684H217.312C217.118 51.9048 216.339 50.4564 215.469 48.8617L215.443 48.8154C214.441 46.9783 213.333 44.9476 213.294 41.9391L213.294 41.9266C213.295 38.9738 214.199 36.7056 215.713 35.0804C217.216 33.4674 219.243 32.5693 221.358 32.2014C225.53 31.4759 230.357 32.7647 232.937 35.1923C233.323 35.5551 233.338 36.1588 232.972 36.5407C232.606 36.9226 231.996 36.9381 231.611 36.5753C229.545 34.6309 225.365 33.4412 221.691 34.0803C219.884 34.3947 218.278 35.1396 217.128 36.3741C215.99 37.5954 215.222 39.3771 215.22 41.9211C215.253 44.4407 216.158 46.114 217.163 47.9547L217.178 47.9836C218.072 49.6218 219.042 51.3984 219.245 53.8684H229.358C229.89 53.8684 230.321 54.2954 230.321 54.8222C230.321 55.3489 229.89 55.776 229.358 55.776H219.263C219.049 60.619 217.251 64.9721 215.485 68.1456C214.567 69.7959 213.648 71.1424 212.946 72.0924H233.037C233.569 72.0924 234 72.5195 234 73.0462C234 73.573 233.569 74 233.037 74H210.963C210.584 74 210.24 73.7798 210.085 73.4375C209.929 73.0952 209.991 72.6943 210.242 72.4134ZM210.242 72.4134C210.242 72.4134 210.242 72.4134 210.242 72.4134Z" stroke="#F7F7F7"/>
</svg>
