<svg xmlns="http://www.w3.org/2000/svg" width="80" height="80" viewBox="0 0 80 80" fill="none">
<circle cx="26.432" cy="18.5102" r="17.5102" stroke="black" stroke-width="2"/>
<circle cx="60.4887" cy="46.6456" r="17.5102" stroke="black" stroke-width="2"/>
<circle cx="20.5102" cy="61.4536" r="17.5102" stroke="black" stroke-width="2"/>
<path fill-rule="evenodd" clip-rule="evenodd" d="M26.4408 6C26.8013 6 27.0936 6.3066 27.0936 6.68482V7.32576C27.0936 7.47621 27.0936 7.55143 27.1009 7.6147C27.1599 8.1297 27.5662 8.53602 28.0812 8.59506C28.1445 8.60232 28.2197 8.60232 28.3702 8.60232C30.8618 8.60232 32.8816 10.7213 32.8816 13.3352C32.8816 13.7134 32.5894 14.02 32.2289 14.02C31.8683 14.02 31.5761 13.7134 31.5761 13.3352C31.5761 11.4777 30.1407 9.97196 28.3702 9.97196H24.7871C22.8643 9.97196 21.3056 11.6072 21.3056 13.6243C21.3056 15.6415 22.8643 17.2767 24.7871 17.2767H28.0945C30.7384 17.2767 32.8816 19.5251 32.8816 22.2987C32.8816 25.0723 30.7384 27.3207 28.0945 27.3207C27.5417 27.3207 27.0936 27.7689 27.0936 28.3217V29.2382C27.0936 29.6164 26.8013 29.923 26.4408 29.923C26.0803 29.923 25.788 29.6164 25.788 29.2382V28.5973C25.788 28.4468 25.788 28.3716 25.7808 28.3083C25.7217 27.7933 25.3154 27.387 24.8004 27.328C24.7371 27.3207 24.6619 27.3207 24.5115 27.3207C22.0199 27.3207 20 25.2017 20 22.5879C20 22.2096 20.2923 21.903 20.6528 21.903C21.0133 21.903 21.3056 22.2096 21.3056 22.5879C21.3056 24.4453 22.7409 25.9511 24.5115 25.9511H28.0945C30.0173 25.9511 31.5761 24.3159 31.5761 22.2987C31.5761 20.2816 30.0173 18.6463 28.0945 18.6463H24.7871C22.1433 18.6463 20 16.3979 20 13.6243C20 10.8507 22.1433 8.60232 24.7871 8.60232C25.3399 8.60232 25.788 8.15418 25.788 7.60138V6.68482C25.788 6.3066 26.0803 6 26.4408 6Z" fill="black" stroke="black" stroke-width="0.557284" stroke-linecap="round" stroke-linejoin="round"/>
<path fill-rule="evenodd" clip-rule="evenodd" d="M54.3004 44.8092C53.8126 44.8092 53.5688 44.8092 53.3404 44.9186C53.1618 45.0042 52.9593 45.1908 52.8594 45.3619C52.7318 45.5805 52.7154 45.7806 52.6826 46.1807C52.6637 46.4123 52.654 46.6464 52.654 46.8829C52.654 47.1193 52.6637 47.3534 52.6826 47.5851C52.7154 47.9851 52.7318 48.1852 52.8594 48.4038C52.9593 48.5749 53.1618 48.7615 53.3404 48.8471C53.5688 48.9565 53.8126 48.9565 54.3004 48.9565H59.5358C59.9519 48.9565 60.2892 49.2881 60.2892 49.6971C60.2892 50.1061 59.9519 50.4376 59.5358 50.4376H54.8216C54.3772 50.4376 54.155 50.4376 54.0056 50.551C53.8855 50.6422 53.7945 50.8132 53.7861 50.9637C53.7756 51.151 53.8875 51.317 54.1115 51.6492C55.6853 53.9836 58.382 55.523 61.4446 55.523C63.6965 55.523 65.749 54.6917 67.3048 53.3231C67.6148 53.0503 68.0912 53.0763 68.3687 53.381C68.6462 53.6858 68.6198 54.154 68.3098 54.4268C66.4884 56.029 64.0815 57.0041 61.4446 57.0041C57.4722 57.0041 54.0252 54.7933 52.3076 51.5553C52.0648 51.0975 51.9434 50.8686 51.8107 50.7429C51.68 50.6191 51.5709 50.5535 51.4002 50.496C51.2271 50.4376 51.0087 50.4376 50.572 50.4376H49.9918C49.5756 50.4376 49.2383 50.1061 49.2383 49.6971C49.2383 49.2881 49.5756 48.9565 49.9918 48.9565H50.2631C50.6411 48.9565 50.8301 48.9565 50.9551 48.8881C51.0723 48.8239 51.1479 48.7405 51.2003 48.6175C51.2561 48.4864 51.2359 48.2808 51.1954 47.8696C51.1634 47.5449 51.1471 47.2158 51.1471 46.8829C51.1471 46.5499 51.1634 46.2208 51.1954 45.8961C51.2359 45.4849 51.2561 45.2793 51.2003 45.1482C51.1479 45.0252 51.0723 44.9418 50.9551 44.8776C50.8301 44.8092 50.6411 44.8092 50.2631 44.8092H49.9918C49.5756 44.8092 49.2383 44.4777 49.2383 44.0686C49.2383 43.6596 49.5756 43.3281 49.9918 43.3281H50.572C51.0087 43.3281 51.2271 43.3281 51.4002 43.2697C51.5709 43.2122 51.68 43.1466 51.8107 43.0228C51.9434 42.8972 52.0648 42.6682 52.3076 42.2104C54.0252 38.9724 57.4722 36.7616 61.4446 36.7616C64.0815 36.7616 66.4884 37.7367 68.3098 39.3389C68.6198 39.6117 68.6462 40.0799 68.3687 40.3847C68.0912 40.6894 67.6148 40.7154 67.3048 40.4426C65.749 39.074 63.6965 38.2427 61.4446 38.2427C58.382 38.2427 55.6853 39.7821 54.1115 42.1165C53.8875 42.4487 53.7756 42.6147 53.7861 42.802C53.7945 42.9525 53.8855 43.1236 54.0056 43.2147C54.155 43.3281 54.3772 43.3281 54.8216 43.3281H59.5358C59.9519 43.3281 60.2892 43.6596 60.2892 44.0686C60.2892 44.4777 59.9519 44.8092 59.5358 44.8092H54.3004Z" fill="black" stroke="black" stroke-width="0.557284" stroke-linecap="round" stroke-linejoin="round"/>
<path d="M26.8425 68.6506C27.1539 68.1696 27.7743 67.9418 28.2724 68.225C28.6886 68.4618 28.8718 68.9753 28.6415 69.3951C27.6928 71.1248 26.203 72 24.1294 72C22.2126 72 20.9556 71.175 19.6987 69.8306C18.8189 71.175 17.4677 72 15.8022 72C13.5083 72 12 70.625 12 68.5778C12 66.5 13.6654 65.0639 15.8022 65.0639C16.9335 65.0639 17.939 65.4 18.8189 66.1028C18.6932 64.85 18.159 63.7806 17.2791 62.4056H14.4259C13.9365 62.4056 13.5397 62.0088 13.5397 61.5194C13.5397 61.0301 13.9365 60.6333 14.4259 60.6333H16.085C15.0795 59.075 14.4824 57.6389 14.4824 55.8056C14.4824 52.4139 17.342 50 21.0499 50C24.3828 50 26.5794 51.7577 27.1716 54.3854C27.2794 54.8637 26.9545 55.3151 26.4798 55.4377L26.4082 55.4562C25.8191 55.6083 25.2436 55.1961 25.051 54.6189C24.4565 52.8373 22.9744 51.9556 21.0499 51.9556C18.5046 51.9556 16.6192 53.5139 16.6192 56.1111C16.6192 57.6083 17.1848 58.7083 18.4104 60.6333H22.7719C23.2613 60.6333 23.658 61.0301 23.658 61.5194C23.658 62.0088 23.2613 62.4056 22.7719 62.4056H19.4787C20.2329 63.8417 20.61 65.2167 20.61 66.5611C20.61 67.0194 20.5786 67.4472 20.4843 67.7833C21.8669 69.3417 22.6525 70.0444 24.1294 70.0444C25.3432 70.0444 26.186 69.6647 26.8425 68.6506ZM18.5046 68.4556C17.6248 67.5083 16.9335 67.0194 16.0536 67.0194C14.8281 67.0194 14.0739 67.6611 14.0739 68.7306C14.0739 69.6778 14.8281 70.35 15.9908 70.35C17.0906 70.35 18.0018 69.5861 18.5046 68.4556Z" fill="#0B0F14"/>
</svg>
