<svg width="799" height="196" viewBox="0 0 799 196" fill="none" xmlns="http://www.w3.org/2000/svg">
<path d="M735.46 142.934L704.802 137.227C704.149 144.442 702.285 150.677 699.23 154.357C696.174 158.037 690.631 159.939 685.164 159.939C680.483 160.068 675.942 158.342 672.53 155.135C669.128 151.971 667.431 147.212 667.438 140.858V94.0111H724.892V56.1567H667.438V21.7515H625.73V140.176C625.73 157.028 630.653 170.54 640.498 180.711C650.342 190.883 665.004 195.978 684.482 195.997C701.103 195.997 715.361 191.405 725.324 182.21C729.332 178.505 732.75 174.208 735.46 169.47C739.734 161.74 742.478 153.259 743.54 144.49L735.46 142.934Z" fill="black"/>
<path d="M331.46 73.1492C324.634 61.0675 314.642 51.0758 302.56 44.2492C290.525 37.2035 276.511 33.6999 260.517 33.7383C244.76 33.7383 230.749 37.242 218.483 44.2492C206.401 51.0758 196.41 61.0675 189.583 73.1492C182.582 85.4087 179.079 99.311 179.072 114.856C179.066 130.402 182.557 144.317 189.545 156.602C196.382 168.655 206.373 178.619 218.445 185.425C230.704 192.471 244.715 195.994 260.478 195.994C276.491 195.994 290.506 192.49 302.522 185.483C314.615 178.667 324.62 168.682 331.46 156.602C338.468 144.342 341.971 130.44 341.971 114.895C341.971 99.3495 338.468 85.4343 331.46 73.1492ZM295.624 138.347C292.326 144.888 287.353 150.437 281.212 154.431C274.932 158.093 267.792 160.022 260.522 160.022C253.252 160.022 246.112 158.093 239.831 154.431C233.691 150.437 228.718 144.888 225.42 138.347C221.91 131.353 220.158 123.196 220.164 113.876C220.171 104.557 221.923 96.3999 225.42 89.4055C228.588 82.7771 233.589 77.1956 239.831 73.3222C246.112 69.6599 253.252 67.7302 260.522 67.7302C267.792 67.7302 274.932 69.6599 281.212 73.3222C287.454 77.1956 292.456 82.7771 295.624 89.4055C299.134 96.3871 300.885 104.544 300.879 113.876C300.873 123.209 299.121 131.366 295.624 138.347Z" fill="black"/>
<path d="M565.357 133.543C563.148 141.665 559.096 148.134 553.204 152.951C547.311 157.768 539.212 160.176 528.906 160.176C522.141 160.179 515.444 158.84 509.2 156.237C503.159 153.463 497.949 149.157 494.087 143.747C490.366 138.046 488.288 131.039 487.852 122.725H593.931C594.373 119.663 594.693 116.598 594.892 113.53C595.324 110.266 595.542 106.976 595.545 103.682C595.545 89.2325 592.48 76.8609 586.35 66.5679C580.581 56.1962 571.895 47.7448 561.37 42.2603C550.667 36.579 538.081 33.7383 523.612 33.7383C508.067 33.7383 494.491 37.3508 482.885 44.5758C471.421 51.6506 462.02 61.6177 455.628 73.4758C449.28 85.5175 446.106 98.9683 446.106 113.828C446.106 130.482 449.61 145.044 456.617 157.515C463.459 169.613 473.594 179.522 485.844 186.088C498.353 192.692 512.598 195.993 528.579 195.993C547.404 195.993 562.837 191.616 574.879 182.86C587.145 174.097 595.791 162.274 600.82 147.388L565.357 133.543ZM500.918 74.4558C507.451 69.8562 515.268 67.4354 523.256 67.5382C528.891 67.3987 534.491 68.47 539.676 70.68C544.169 72.3245 548.061 75.2883 550.84 79.1828C553.796 82.9582 555.415 87.6082 555.442 92.403C555.42 92.9434 555.306 93.4761 555.106 93.9787H488.409C490.6 85.399 494.356 78.8946 500.918 74.4846V74.4558Z" fill="black"/>
<path d="M351.849 192.692L400.906 0H445.236L396.188 192.692H351.849Z" fill="black"/>
<path d="M44.3396 37.0166L86.7 152.905L131.318 37.0166H175.658L112.324 192.662H61.4029L0 37.0166H44.3396Z" fill="black"/>
<path d="M780.585 195.997C777.351 196.042 774.167 195.198 771.38 193.556C768.681 191.949 766.445 189.669 764.892 186.938C763.34 184.207 762.523 181.119 762.523 177.977C762.523 174.836 763.34 171.748 764.892 169.017C766.445 166.286 768.681 164.005 771.38 162.398C774.191 160.799 777.37 159.958 780.604 159.958C783.838 159.958 787.016 160.799 789.827 162.398C792.508 163.977 794.733 166.225 796.284 168.922C797.833 171.687 798.646 174.803 798.646 177.972C798.646 181.142 797.833 184.258 796.284 187.023C794.745 189.719 792.534 191.97 789.866 193.556C787.058 195.215 783.845 196.06 780.585 195.997ZM780.585 191.75C783.046 191.795 785.471 191.153 787.589 189.896C789.651 188.666 791.356 186.919 792.536 184.828C793.715 182.736 794.328 180.373 794.314 177.972C794.352 175.55 793.742 173.162 792.546 171.055C791.361 169.006 789.666 167.299 787.627 166.097C785.5 164.865 783.087 164.212 780.629 164.204C778.171 164.196 775.754 164.832 773.619 166.049C771.599 167.263 769.92 168.969 768.738 171.007C766.903 174.158 766.387 177.906 767.301 181.436C768.215 184.966 770.485 187.992 773.619 189.857C775.725 191.11 778.135 191.758 780.585 191.731V191.75ZM780.719 186.725C779.167 186.692 777.651 186.257 776.319 185.46C774.986 184.664 773.884 183.535 773.12 182.184C772.357 180.833 771.958 179.306 771.963 177.754C771.967 176.202 772.376 174.678 773.148 173.332C773.896 172.056 774.98 171.009 776.28 170.306C777.575 169.584 779.035 169.21 780.517 169.22C782.369 169.159 784.194 169.68 785.734 170.709C787.234 171.833 788.237 173.498 788.53 175.35L784.898 176.426C784.754 175.373 784.24 174.406 783.448 173.697C782.648 173.008 781.621 172.638 780.565 172.659C779.364 172.676 778.212 173.142 777.337 173.966C776.55 174.674 775.995 175.603 775.743 176.631C775.49 177.659 775.553 178.739 775.923 179.73C776.293 180.722 776.953 181.58 777.817 182.191C778.681 182.803 779.709 183.141 780.767 183.161C781.416 183.209 782.069 183.117 782.679 182.889C783.289 182.662 783.843 182.306 784.303 181.844C785.098 180.949 785.604 179.834 785.753 178.645L789.251 179.932C788.803 181.908 787.715 183.682 786.157 184.977C784.601 186.169 782.678 186.781 780.719 186.706V186.725Z" fill="black"/>
</svg>
