<svg width="80" height="80" viewBox="0 0 80 80" fill="none" xmlns="http://www.w3.org/2000/svg">
<path d="M59.7178 31.3678V65.0637H41.7021V46.3809H26.3555V65.0637H8.33984V31.3678" stroke="black" stroke-width="2"/>
<path d="M50.0417 23.3609C50.0417 27.783 53.6265 31.3678 58.0487 31.3678C62.4708 31.3678 66.0556 27.783 66.0556 23.3609L58.0487 7H10.007L2 23.3609C2 27.783 5.58483 31.3678 10.007 31.3678C14.4291 31.3678 18.0139 27.783 18.0139 23.3609M50.0417 23.3609C50.0417 27.783 46.4569 31.3678 42.0348 31.3678C37.6126 31.3678 34.0278 27.783 34.0278 23.3609M50.0417 23.3609L47.3727 7.34698M34.0278 23.3609C34.0278 27.783 30.443 31.3678 26.0209 31.3678C21.5987 31.3678 18.0139 27.783 18.0139 23.3609M34.0278 23.3609V7.34698M18.0139 23.3609L20.6829 7.34698" stroke="black" stroke-width="2"/>
<circle cx="62.5" cy="56.5" r="15.5" fill="#F7F7F7" stroke="black" stroke-width="2"/>
<path fill-rule="evenodd" clip-rule="evenodd" d="M63 47C63.2799 47 63.5068 47.2435 63.5068 47.5439V48.0758C63.5068 48.6231 63.9504 49.0668 64.4977 49.0668C66.432 49.0668 68 50.7497 68 52.8257C68 53.1261 67.7731 53.3696 67.4932 53.3696C67.2134 53.3696 66.9865 53.1261 66.9865 52.8257C66.9865 51.3505 65.8722 50.1546 64.4977 50.1546H61.7162C60.2236 50.1546 59.0135 51.4533 59.0135 53.0553C59.0135 54.6574 60.2236 55.9561 61.7162 55.9561H64.2838C66.3362 55.9561 68 57.7418 68 59.9447C68 62.1475 66.3362 63.9332 64.2838 63.9332C63.8546 63.9332 63.5068 64.2811 63.5068 64.7102V65.4561C63.5068 65.7565 63.2799 66 63 66C62.7201 66 62.4932 65.7565 62.4932 65.4561V64.9242C62.4932 64.3769 62.0496 63.9332 61.5023 63.9332C59.568 63.9332 58 62.2503 58 60.1743C58 59.8739 58.2269 59.6304 58.5068 59.6304C58.7866 59.6304 59.0135 59.8739 59.0135 60.1743C59.0135 61.6495 60.1278 62.8454 61.5023 62.8454H64.2838C65.7764 62.8454 66.9865 61.5467 66.9865 59.9447C66.9865 58.3426 65.7764 57.0439 64.2838 57.0439H61.7162C59.6638 57.0439 58 55.2582 58 53.0553C58 50.8525 59.6638 49.0668 61.7162 49.0668C62.1454 49.0668 62.4932 48.7189 62.4932 48.2898V47.5439C62.4932 47.2435 62.7201 47 63 47Z" fill="black" stroke="black" stroke-linecap="round" stroke-linejoin="round"/>
</svg>
