<svg width="80" height="80" viewBox="0 0 80 80" fill="none" xmlns="http://www.w3.org/2000/svg">
<path d="M6.41992 13C6.41992 10.2386 8.6585 8 11.4199 8H69.0008C71.7622 8 74.0008 10.2386 74.0008 13V58.9841C74.0008 61.7455 71.7622 63.9841 69.0008 63.9841H22.4198C21.9918 63.9841 21.5752 64.1213 21.231 64.3757L21.7903 65.1323L21.231 64.3757L6.41992 75.323L6.41992 13Z" stroke="black" stroke-width="2" stroke-linecap="round" stroke-linejoin="round"/>
<path d="M21.9935 37.256C23.1455 36.656 24.0335 36.176 24.6575 35.768C25.9295 34.928 26.6975 33.896 26.6975 32.336C26.6975 30.248 25.2095 28.832 22.8335 28.832C20.6495 28.832 19.0895 30.392 19.0895 32.216C19.0895 33.2 19.4015 34.064 20.0255 34.832L18.2495 35.984C17.4095 34.88 16.9775 33.68 16.9775 32.36C16.9775 29.408 19.3295 26.96 22.9295 26.96C26.6015 26.96 28.7855 29.144 28.7855 32.24C28.7855 35 27.3935 36.608 24.6815 37.976C23.5535 38.576 22.7375 39.032 22.1855 39.344C21.1295 39.944 20.1215 40.904 19.9295 42.056H28.8095V44H17.3375C17.3375 40.616 19.0895 38.696 21.9935 37.256ZM37.2215 44V39.704H29.6615V37.52C32.6615 34.568 33.2135 32.6 33.2615 28.28V27.2H35.3495V28.28C35.3495 30.32 35.0855 32.096 34.5815 33.608C34.0775 35.12 33.1895 36.512 31.8695 37.832H37.2215V32.384H39.3095V37.832H42.1655V39.704H39.3095V44H37.2215ZM51.1942 24.104L52.9462 24.752L44.8102 47.096L43.0582 46.448L51.1942 24.104ZM54.2126 27.2H65.1566V28.904C61.4846 31.424 59.6366 35.168 59.6366 40.088C59.6366 41.312 59.7326 42.608 59.9246 44H57.6446C57.5006 42.896 57.4286 41.768 57.4286 40.592C57.4286 35.72 59.1326 31.904 62.2766 29.144H54.2126V27.2Z" fill="#0B0F14"/>
</svg>
